<mxfile host="app.diagrams.net" modified="2022-04-25T21:23:48.019Z" agent="5.0 (Macintosh; Intel Mac OS X 10_15_7) AppleWebKit/537.36 (KHTML, like Gecko) Chrome/100.0.4896.127 Safari/537.36" etag="2j7_27rtDIMpttZvH3Mh" version="17.4.6" type="github">
  <diagram id="SkwHMjrg9KNgQi0snikr" name="Page-1">
    <mxGraphModel dx="901" dy="585" grid="1" gridSize="10" guides="1" tooltips="1" connect="1" arrows="1" fold="1" page="1" pageScale="1" pageWidth="827" pageHeight="1169" math="0" shadow="0">
      <root>
        <mxCell id="0" />
        <mxCell id="1" parent="0" />
        <mxCell id="3HB3KCIW7LwExQFitr_c-1" value="José Arcadio Buendía" style="rounded=0;whiteSpace=wrap;html=1;" vertex="1" parent="1">
          <mxGeometry x="220" y="50" width="120" height="60" as="geometry" />
        </mxCell>
        <mxCell id="3HB3KCIW7LwExQFitr_c-2" value="Úrsula Iguarán&amp;nbsp;" style="rounded=0;whiteSpace=wrap;html=1;" vertex="1" parent="1">
          <mxGeometry x="420" y="50" width="120" height="60" as="geometry" />
        </mxCell>
        <mxCell id="3HB3KCIW7LwExQFitr_c-3" value="" style="endArrow=none;html=1;rounded=0;exitX=1;exitY=0.5;exitDx=0;exitDy=0;entryX=0;entryY=0.5;entryDx=0;entryDy=0;" edge="1" parent="1" source="3HB3KCIW7LwExQFitr_c-1" target="3HB3KCIW7LwExQFitr_c-2">
          <mxGeometry width="50" height="50" relative="1" as="geometry">
            <mxPoint x="390" y="350" as="sourcePoint" />
            <mxPoint x="440" y="300" as="targetPoint" />
          </mxGeometry>
        </mxCell>
        <mxCell id="3HB3KCIW7LwExQFitr_c-4" value="" style="endArrow=none;html=1;rounded=0;" edge="1" parent="1">
          <mxGeometry width="50" height="50" relative="1" as="geometry">
            <mxPoint x="380" y="160" as="sourcePoint" />
            <mxPoint x="380" y="80" as="targetPoint" />
          </mxGeometry>
        </mxCell>
        <mxCell id="3HB3KCIW7LwExQFitr_c-5" value="" style="endArrow=none;html=1;rounded=0;" edge="1" parent="1">
          <mxGeometry width="50" height="50" relative="1" as="geometry">
            <mxPoint x="160" y="160" as="sourcePoint" />
            <mxPoint x="1140" y="160" as="targetPoint" />
          </mxGeometry>
        </mxCell>
        <mxCell id="3HB3KCIW7LwExQFitr_c-6" value="" style="endArrow=classic;html=1;rounded=0;" edge="1" parent="1">
          <mxGeometry width="50" height="50" relative="1" as="geometry">
            <mxPoint x="160" y="160" as="sourcePoint" />
            <mxPoint x="160" y="200" as="targetPoint" />
          </mxGeometry>
        </mxCell>
        <mxCell id="3HB3KCIW7LwExQFitr_c-7" value="Rebeca&amp;nbsp;" style="rounded=0;whiteSpace=wrap;html=1;" vertex="1" parent="1">
          <mxGeometry x="100" y="200" width="120" height="60" as="geometry" />
        </mxCell>
        <mxCell id="3HB3KCIW7LwExQFitr_c-11" value="" style="endArrow=none;html=1;rounded=0;exitX=1;exitY=0.5;exitDx=0;exitDy=0;entryX=0;entryY=0.5;entryDx=0;entryDy=0;" edge="1" parent="1" target="3HB3KCIW7LwExQFitr_c-12">
          <mxGeometry width="50" height="50" relative="1" as="geometry">
            <mxPoint x="220" y="229.5" as="sourcePoint" />
            <mxPoint x="300" y="229.5" as="targetPoint" />
          </mxGeometry>
        </mxCell>
        <mxCell id="3HB3KCIW7LwExQFitr_c-12" value="José Arcadio&amp;nbsp;" style="rounded=0;whiteSpace=wrap;html=1;" vertex="1" parent="1">
          <mxGeometry x="320" y="200" width="120" height="60" as="geometry" />
        </mxCell>
        <mxCell id="3HB3KCIW7LwExQFitr_c-14" value="" style="endArrow=classic;html=1;rounded=0;entryX=0.5;entryY=0;entryDx=0;entryDy=0;" edge="1" parent="1" target="3HB3KCIW7LwExQFitr_c-12">
          <mxGeometry width="50" height="50" relative="1" as="geometry">
            <mxPoint x="380" y="160" as="sourcePoint" />
            <mxPoint x="170" y="210" as="targetPoint" />
          </mxGeometry>
        </mxCell>
        <mxCell id="3HB3KCIW7LwExQFitr_c-15" value="Amaranta&amp;nbsp;" style="rounded=0;whiteSpace=wrap;html=1;" vertex="1" parent="1">
          <mxGeometry x="560" y="200" width="120" height="60" as="geometry" />
        </mxCell>
        <mxCell id="3HB3KCIW7LwExQFitr_c-17" value="" style="endArrow=classic;html=1;rounded=0;entryX=0.5;entryY=0;entryDx=0;entryDy=0;" edge="1" parent="1" target="3HB3KCIW7LwExQFitr_c-15">
          <mxGeometry width="50" height="50" relative="1" as="geometry">
            <mxPoint x="620" y="160" as="sourcePoint" />
            <mxPoint x="370" y="210" as="targetPoint" />
          </mxGeometry>
        </mxCell>
        <mxCell id="3HB3KCIW7LwExQFitr_c-19" value="" style="endArrow=classic;html=1;rounded=0;entryX=0.5;entryY=0;entryDx=0;entryDy=0;" edge="1" parent="1" target="3HB3KCIW7LwExQFitr_c-20">
          <mxGeometry width="50" height="50" relative="1" as="geometry">
            <mxPoint x="1140" y="160" as="sourcePoint" />
            <mxPoint x="800" y="200" as="targetPoint" />
          </mxGeometry>
        </mxCell>
        <mxCell id="3HB3KCIW7LwExQFitr_c-20" value="Coronel Aureliano&amp;nbsp;" style="rounded=0;whiteSpace=wrap;html=1;" vertex="1" parent="1">
          <mxGeometry x="1080" y="220" width="120" height="60" as="geometry" />
        </mxCell>
        <mxCell id="3HB3KCIW7LwExQFitr_c-21" value="Pilar Ternera&amp;nbsp;" style="rounded=0;whiteSpace=wrap;html=1;" vertex="1" parent="1">
          <mxGeometry x="560" y="320" width="120" height="60" as="geometry" />
        </mxCell>
        <mxCell id="3HB3KCIW7LwExQFitr_c-26" value="" style="endArrow=none;dashed=1;html=1;dashPattern=1 3;strokeWidth=2;rounded=0;exitX=0;exitY=0.5;exitDx=0;exitDy=0;entryX=1;entryY=0.5;entryDx=0;entryDy=0;" edge="1" parent="1" source="3HB3KCIW7LwExQFitr_c-21" target="3HB3KCIW7LwExQFitr_c-12">
          <mxGeometry width="50" height="50" relative="1" as="geometry">
            <mxPoint x="540" y="330" as="sourcePoint" />
            <mxPoint x="590" y="280" as="targetPoint" />
          </mxGeometry>
        </mxCell>
        <mxCell id="3HB3KCIW7LwExQFitr_c-27" value="" style="endArrow=none;dashed=1;html=1;dashPattern=1 3;strokeWidth=2;rounded=0;exitX=1;exitY=0.5;exitDx=0;exitDy=0;entryX=0;entryY=0.5;entryDx=0;entryDy=0;" edge="1" parent="1" source="3HB3KCIW7LwExQFitr_c-21" target="3HB3KCIW7LwExQFitr_c-20">
          <mxGeometry width="50" height="50" relative="1" as="geometry">
            <mxPoint x="540" y="330" as="sourcePoint" />
            <mxPoint x="590" y="280" as="targetPoint" />
          </mxGeometry>
        </mxCell>
        <mxCell id="3HB3KCIW7LwExQFitr_c-28" value="" style="endArrow=classic;html=1;rounded=0;exitX=0;exitY=0.5;exitDx=0;exitDy=0;entryX=0.5;entryY=0;entryDx=0;entryDy=0;" edge="1" parent="1" source="3HB3KCIW7LwExQFitr_c-21" target="3HB3KCIW7LwExQFitr_c-30">
          <mxGeometry width="50" height="50" relative="1" as="geometry">
            <mxPoint x="540" y="450" as="sourcePoint" />
            <mxPoint x="400" y="400" as="targetPoint" />
          </mxGeometry>
        </mxCell>
        <mxCell id="3HB3KCIW7LwExQFitr_c-29" value="" style="endArrow=classic;html=1;rounded=0;exitX=1;exitY=0.5;exitDx=0;exitDy=0;entryX=0.5;entryY=0;entryDx=0;entryDy=0;" edge="1" parent="1" source="3HB3KCIW7LwExQFitr_c-21" target="3HB3KCIW7LwExQFitr_c-31">
          <mxGeometry width="50" height="50" relative="1" as="geometry">
            <mxPoint x="830" y="380" as="sourcePoint" />
            <mxPoint x="800" y="400" as="targetPoint" />
          </mxGeometry>
        </mxCell>
        <mxCell id="3HB3KCIW7LwExQFitr_c-30" value="Arcadio" style="rounded=0;whiteSpace=wrap;html=1;" vertex="1" parent="1">
          <mxGeometry x="370" y="400" width="120" height="60" as="geometry" />
        </mxCell>
        <mxCell id="3HB3KCIW7LwExQFitr_c-31" value="José Arcadio&amp;nbsp;" style="rounded=0;whiteSpace=wrap;html=1;" vertex="1" parent="1">
          <mxGeometry x="770" y="400" width="120" height="60" as="geometry" />
        </mxCell>
        <mxCell id="3HB3KCIW7LwExQFitr_c-32" value="" style="endArrow=none;html=1;rounded=0;exitX=1;exitY=0.5;exitDx=0;exitDy=0;" edge="1" parent="1" source="3HB3KCIW7LwExQFitr_c-20">
          <mxGeometry width="50" height="50" relative="1" as="geometry">
            <mxPoint x="1170" y="430" as="sourcePoint" />
            <mxPoint x="1320" y="250" as="targetPoint" />
          </mxGeometry>
        </mxCell>
        <mxCell id="3HB3KCIW7LwExQFitr_c-33" value="Remedios Moscote&amp;nbsp;" style="rounded=0;whiteSpace=wrap;html=1;" vertex="1" parent="1">
          <mxGeometry x="1310" y="220" width="120" height="60" as="geometry" />
        </mxCell>
        <mxCell id="3HB3KCIW7LwExQFitr_c-35" value="" style="endArrow=none;dashed=1;html=1;dashPattern=1 3;strokeWidth=2;rounded=0;exitX=1;exitY=0.5;exitDx=0;exitDy=0;" edge="1" parent="1" source="3HB3KCIW7LwExQFitr_c-31">
          <mxGeometry width="50" height="50" relative="1" as="geometry">
            <mxPoint x="780" y="490" as="sourcePoint" />
            <mxPoint x="990" y="430" as="targetPoint" />
          </mxGeometry>
        </mxCell>
        <mxCell id="3HB3KCIW7LwExQFitr_c-36" value="Carmelita Montiel&amp;nbsp;" style="rounded=0;whiteSpace=wrap;html=1;" vertex="1" parent="1">
          <mxGeometry x="970" y="400" width="120" height="60" as="geometry" />
        </mxCell>
        <mxCell id="3HB3KCIW7LwExQFitr_c-37" value="" style="endArrow=classic;html=1;rounded=0;entryX=0.5;entryY=0;entryDx=0;entryDy=0;" edge="1" parent="1" target="3HB3KCIW7LwExQFitr_c-38">
          <mxGeometry width="50" height="50" relative="1" as="geometry">
            <mxPoint x="1260" y="250" as="sourcePoint" />
            <mxPoint x="1260" y="400" as="targetPoint" />
          </mxGeometry>
        </mxCell>
        <mxCell id="3HB3KCIW7LwExQFitr_c-38" value="17 Aurelianos&amp;nbsp;" style="rounded=0;whiteSpace=wrap;html=1;" vertex="1" parent="1">
          <mxGeometry x="1200" y="400" width="120" height="60" as="geometry" />
        </mxCell>
        <mxCell id="3HB3KCIW7LwExQFitr_c-40" value="" style="endArrow=none;html=1;rounded=0;exitX=1;exitY=0.5;exitDx=0;exitDy=0;entryX=0;entryY=0.5;entryDx=0;entryDy=0;" edge="1" parent="1">
          <mxGeometry width="50" height="50" relative="1" as="geometry">
            <mxPoint x="270" y="429.5" as="sourcePoint" />
            <mxPoint x="370" y="430" as="targetPoint" />
          </mxGeometry>
        </mxCell>
        <mxCell id="3HB3KCIW7LwExQFitr_c-41" value="Sofía de la Piedad&amp;nbsp;" style="rounded=0;whiteSpace=wrap;html=1;" vertex="1" parent="1">
          <mxGeometry x="150" y="400" width="120" height="60" as="geometry" />
        </mxCell>
        <mxCell id="3HB3KCIW7LwExQFitr_c-42" value="" style="endArrow=none;html=1;rounded=0;" edge="1" parent="1">
          <mxGeometry width="50" height="50" relative="1" as="geometry">
            <mxPoint x="320" y="500" as="sourcePoint" />
            <mxPoint x="320" y="430" as="targetPoint" />
          </mxGeometry>
        </mxCell>
        <mxCell id="3HB3KCIW7LwExQFitr_c-43" value="" style="endArrow=none;html=1;rounded=0;" edge="1" parent="1">
          <mxGeometry width="50" height="50" relative="1" as="geometry">
            <mxPoint x="200" y="500" as="sourcePoint" />
            <mxPoint x="1000" y="500" as="targetPoint" />
          </mxGeometry>
        </mxCell>
        <mxCell id="3HB3KCIW7LwExQFitr_c-52" value="gemelos&amp;nbsp;" style="edgeLabel;html=1;align=center;verticalAlign=middle;resizable=0;points=[];" vertex="1" connectable="0" parent="3HB3KCIW7LwExQFitr_c-43">
          <mxGeometry x="0.7259" y="4" relative="1" as="geometry">
            <mxPoint x="-39" as="offset" />
          </mxGeometry>
        </mxCell>
        <mxCell id="3HB3KCIW7LwExQFitr_c-44" value="" style="endArrow=none;html=1;rounded=0;" edge="1" parent="1">
          <mxGeometry width="50" height="50" relative="1" as="geometry">
            <mxPoint x="200" y="550" as="sourcePoint" />
            <mxPoint x="200" y="500" as="targetPoint" />
          </mxGeometry>
        </mxCell>
        <mxCell id="3HB3KCIW7LwExQFitr_c-45" value="Remedios, la bella&amp;nbsp;" style="rounded=0;whiteSpace=wrap;html=1;" vertex="1" parent="1">
          <mxGeometry x="140" y="550" width="120" height="60" as="geometry" />
        </mxCell>
        <mxCell id="3HB3KCIW7LwExQFitr_c-46" value="Fernanda del Carpio&amp;nbsp;" style="rounded=0;whiteSpace=wrap;html=1;" vertex="1" parent="1">
          <mxGeometry x="400" y="550" width="120" height="60" as="geometry" />
        </mxCell>
        <mxCell id="3HB3KCIW7LwExQFitr_c-47" value="Aureliano segundo&amp;nbsp;" style="rounded=0;whiteSpace=wrap;html=1;" vertex="1" parent="1">
          <mxGeometry x="640" y="550" width="120" height="60" as="geometry" />
        </mxCell>
        <mxCell id="3HB3KCIW7LwExQFitr_c-49" value="" style="endArrow=classic;html=1;rounded=0;entryX=0.5;entryY=0;entryDx=0;entryDy=0;" edge="1" parent="1" target="3HB3KCIW7LwExQFitr_c-46">
          <mxGeometry width="50" height="50" relative="1" as="geometry">
            <mxPoint x="460" y="500" as="sourcePoint" />
            <mxPoint x="540" y="570" as="targetPoint" />
          </mxGeometry>
        </mxCell>
        <mxCell id="3HB3KCIW7LwExQFitr_c-51" value="" style="endArrow=classic;html=1;rounded=0;entryX=0.5;entryY=0;entryDx=0;entryDy=0;" edge="1" parent="1" target="3HB3KCIW7LwExQFitr_c-47">
          <mxGeometry width="50" height="50" relative="1" as="geometry">
            <mxPoint x="700" y="500" as="sourcePoint" />
            <mxPoint x="540" y="570" as="targetPoint" />
          </mxGeometry>
        </mxCell>
        <mxCell id="3HB3KCIW7LwExQFitr_c-55" value="" style="endArrow=classic;html=1;rounded=0;" edge="1" parent="1">
          <mxGeometry width="50" height="50" relative="1" as="geometry">
            <mxPoint x="1000" y="500" as="sourcePoint" />
            <mxPoint x="1000" y="560" as="targetPoint" />
          </mxGeometry>
        </mxCell>
        <mxCell id="3HB3KCIW7LwExQFitr_c-56" value="José Arcadio segundo" style="rounded=0;whiteSpace=wrap;html=1;" vertex="1" parent="1">
          <mxGeometry x="920" y="550" width="120" height="60" as="geometry" />
        </mxCell>
        <mxCell id="3HB3KCIW7LwExQFitr_c-57" value="Petra Cotes&amp;nbsp;" style="rounded=0;whiteSpace=wrap;html=1;" vertex="1" parent="1">
          <mxGeometry x="780" y="600" width="120" height="60" as="geometry" />
        </mxCell>
        <mxCell id="3HB3KCIW7LwExQFitr_c-58" value="" style="endArrow=none;dashed=1;html=1;dashPattern=1 3;strokeWidth=2;rounded=0;exitX=0.5;exitY=0;exitDx=0;exitDy=0;entryX=0;entryY=0.5;entryDx=0;entryDy=0;" edge="1" parent="1" source="3HB3KCIW7LwExQFitr_c-57" target="3HB3KCIW7LwExQFitr_c-56">
          <mxGeometry width="50" height="50" relative="1" as="geometry">
            <mxPoint x="790" y="680" as="sourcePoint" />
            <mxPoint x="840" y="630" as="targetPoint" />
          </mxGeometry>
        </mxCell>
        <mxCell id="3HB3KCIW7LwExQFitr_c-59" value="" style="endArrow=none;dashed=1;html=1;dashPattern=1 3;strokeWidth=2;rounded=0;exitX=0.542;exitY=-0.019;exitDx=0;exitDy=0;exitPerimeter=0;entryX=1;entryY=0.5;entryDx=0;entryDy=0;" edge="1" parent="1" source="3HB3KCIW7LwExQFitr_c-57" target="3HB3KCIW7LwExQFitr_c-47">
          <mxGeometry width="50" height="50" relative="1" as="geometry">
            <mxPoint x="790" y="680" as="sourcePoint" />
            <mxPoint x="840" y="630" as="targetPoint" />
          </mxGeometry>
        </mxCell>
        <mxCell id="3HB3KCIW7LwExQFitr_c-60" value="" style="endArrow=none;html=1;rounded=0;exitX=1;exitY=0.5;exitDx=0;exitDy=0;" edge="1" parent="1" source="3HB3KCIW7LwExQFitr_c-46" target="3HB3KCIW7LwExQFitr_c-47">
          <mxGeometry width="50" height="50" relative="1" as="geometry">
            <mxPoint x="620" y="760" as="sourcePoint" />
            <mxPoint x="670" y="710" as="targetPoint" />
          </mxGeometry>
        </mxCell>
        <mxCell id="3HB3KCIW7LwExQFitr_c-62" value="" style="endArrow=none;html=1;rounded=0;" edge="1" parent="1">
          <mxGeometry width="50" height="50" relative="1" as="geometry">
            <mxPoint x="590" y="680" as="sourcePoint" />
            <mxPoint x="590" y="580" as="targetPoint" />
          </mxGeometry>
        </mxCell>
        <mxCell id="3HB3KCIW7LwExQFitr_c-63" value="" style="endArrow=classic;html=1;rounded=0;" edge="1" parent="1">
          <mxGeometry width="50" height="50" relative="1" as="geometry">
            <mxPoint x="590" y="680" as="sourcePoint" />
            <mxPoint x="590" y="710" as="targetPoint" />
          </mxGeometry>
        </mxCell>
        <mxCell id="3HB3KCIW7LwExQFitr_c-64" value="Meme&amp;nbsp;" style="rounded=0;whiteSpace=wrap;html=1;" vertex="1" parent="1">
          <mxGeometry x="530" y="710" width="120" height="60" as="geometry" />
        </mxCell>
        <mxCell id="3HB3KCIW7LwExQFitr_c-65" value="" style="endArrow=none;html=1;rounded=0;" edge="1" parent="1">
          <mxGeometry width="50" height="50" relative="1" as="geometry">
            <mxPoint x="590" y="690" as="sourcePoint" />
            <mxPoint x="970" y="690" as="targetPoint" />
          </mxGeometry>
        </mxCell>
        <mxCell id="3HB3KCIW7LwExQFitr_c-66" value="" style="endArrow=classic;html=1;rounded=0;entryX=0.5;entryY=0;entryDx=0;entryDy=0;" edge="1" parent="1" target="3HB3KCIW7LwExQFitr_c-67">
          <mxGeometry width="50" height="50" relative="1" as="geometry">
            <mxPoint x="770" y="690" as="sourcePoint" />
            <mxPoint x="770" y="710" as="targetPoint" />
          </mxGeometry>
        </mxCell>
        <mxCell id="3HB3KCIW7LwExQFitr_c-67" value="José Arcadio&amp;nbsp;" style="rounded=0;whiteSpace=wrap;html=1;" vertex="1" parent="1">
          <mxGeometry x="710" y="710" width="120" height="60" as="geometry" />
        </mxCell>
        <mxCell id="3HB3KCIW7LwExQFitr_c-70" value="Amaranta Úrsula&amp;nbsp;" style="rounded=0;whiteSpace=wrap;html=1;" vertex="1" parent="1">
          <mxGeometry x="910" y="710" width="120" height="60" as="geometry" />
        </mxCell>
        <mxCell id="3HB3KCIW7LwExQFitr_c-71" value="" style="endArrow=classic;html=1;rounded=0;entryX=0.5;entryY=0;entryDx=0;entryDy=0;" edge="1" parent="1" target="3HB3KCIW7LwExQFitr_c-70">
          <mxGeometry width="50" height="50" relative="1" as="geometry">
            <mxPoint x="970" y="690" as="sourcePoint" />
            <mxPoint x="780" y="720" as="targetPoint" />
          </mxGeometry>
        </mxCell>
        <mxCell id="3HB3KCIW7LwExQFitr_c-73" value="" style="endArrow=none;html=1;rounded=0;exitX=1;exitY=0.5;exitDx=0;exitDy=0;" edge="1" parent="1" source="3HB3KCIW7LwExQFitr_c-70">
          <mxGeometry width="50" height="50" relative="1" as="geometry">
            <mxPoint x="810" y="870" as="sourcePoint" />
            <mxPoint x="1140" y="740" as="targetPoint" />
          </mxGeometry>
        </mxCell>
        <mxCell id="3HB3KCIW7LwExQFitr_c-74" value="Gastón&amp;nbsp;" style="rounded=0;whiteSpace=wrap;html=1;" vertex="1" parent="1">
          <mxGeometry x="1140" y="710" width="120" height="60" as="geometry" />
        </mxCell>
        <mxCell id="3HB3KCIW7LwExQFitr_c-75" value="" style="endArrow=none;dashed=1;html=1;dashPattern=1 3;strokeWidth=2;rounded=0;entryX=0;entryY=0.5;entryDx=0;entryDy=0;" edge="1" parent="1" target="3HB3KCIW7LwExQFitr_c-64">
          <mxGeometry width="50" height="50" relative="1" as="geometry">
            <mxPoint x="390" y="740" as="sourcePoint" />
            <mxPoint x="490" y="810" as="targetPoint" />
          </mxGeometry>
        </mxCell>
        <mxCell id="3HB3KCIW7LwExQFitr_c-76" value="Mauricio Babilonia&amp;nbsp;" style="rounded=0;whiteSpace=wrap;html=1;" vertex="1" parent="1">
          <mxGeometry x="320" y="710" width="120" height="60" as="geometry" />
        </mxCell>
        <mxCell id="3HB3KCIW7LwExQFitr_c-77" value="" style="endArrow=classic;html=1;rounded=0;entryX=0.5;entryY=0;entryDx=0;entryDy=0;" edge="1" parent="1" target="3HB3KCIW7LwExQFitr_c-78">
          <mxGeometry width="50" height="50" relative="1" as="geometry">
            <mxPoint x="490" y="740" as="sourcePoint" />
            <mxPoint x="490" y="820" as="targetPoint" />
          </mxGeometry>
        </mxCell>
        <mxCell id="3HB3KCIW7LwExQFitr_c-78" value="Aureliano Babilonia&amp;nbsp;" style="rounded=0;whiteSpace=wrap;html=1;" vertex="1" parent="1">
          <mxGeometry x="430" y="820" width="120" height="60" as="geometry" />
        </mxCell>
        <mxCell id="3HB3KCIW7LwExQFitr_c-79" value="" style="endArrow=none;dashed=1;html=1;dashPattern=1 3;strokeWidth=2;rounded=0;entryX=0.5;entryY=1;entryDx=0;entryDy=0;" edge="1" parent="1" target="3HB3KCIW7LwExQFitr_c-70">
          <mxGeometry width="50" height="50" relative="1" as="geometry">
            <mxPoint x="970" y="850" as="sourcePoint" />
            <mxPoint x="710" y="860" as="targetPoint" />
          </mxGeometry>
        </mxCell>
        <mxCell id="3HB3KCIW7LwExQFitr_c-80" value="" style="endArrow=none;dashed=1;html=1;dashPattern=1 3;strokeWidth=2;rounded=0;exitX=1;exitY=0.5;exitDx=0;exitDy=0;" edge="1" parent="1" source="3HB3KCIW7LwExQFitr_c-78">
          <mxGeometry width="50" height="50" relative="1" as="geometry">
            <mxPoint x="660" y="910" as="sourcePoint" />
            <mxPoint x="970" y="850" as="targetPoint" />
          </mxGeometry>
        </mxCell>
        <mxCell id="3HB3KCIW7LwExQFitr_c-81" value="" style="endArrow=classic;html=1;rounded=0;entryX=0.5;entryY=0;entryDx=0;entryDy=0;" edge="1" parent="1" target="3HB3KCIW7LwExQFitr_c-82">
          <mxGeometry width="50" height="50" relative="1" as="geometry">
            <mxPoint x="810" y="850" as="sourcePoint" />
            <mxPoint x="810" y="910" as="targetPoint" />
          </mxGeometry>
        </mxCell>
        <mxCell id="3HB3KCIW7LwExQFitr_c-82" value="Rodrigo" style="rounded=0;whiteSpace=wrap;html=1;" vertex="1" parent="1">
          <mxGeometry x="750" y="910" width="120" height="60" as="geometry" />
        </mxCell>
      </root>
    </mxGraphModel>
  </diagram>
</mxfile>
